<svg width="55" height="40" viewBox="0 0 55 40" fill="none" xmlns="http://www.w3.org/2000/svg">
<g clip-path="url(#clip0_25_17)">
<path d="M20.5 20C26.0228 20 30.5 15.5228 30.5 10C30.5 4.47715 26.0228 0 20.5 0C14.9772 0 10.5 4.47715 10.5 10C10.5 15.5228 14.9772 20 20.5 20Z" fill="black"/>
<path d="M20.5 40C20.5 40 40.5 40 40.5 35C40.5 29 30.75 22.5 20.5 22.5C10.25 22.5 0.5 29 0.5 35C0.5 40 20.5 40 20.5 40Z" fill="black"/>
<path d="M45 1C47.6522 1 50.1957 2.05357 52.0711 3.92893C53.9464 5.8043 55 8.34784 55 11C55 13.6522 53.9464 16.1957 52.0711 18.0711C50.1957 19.9464 47.6522 21 45 21C42.3478 21 39.8043 19.9464 37.9289 18.0711C36.0536 16.1957 35 13.6522 35 11C35 8.34784 36.0536 5.8043 37.9289 3.92893C39.8043 2.05357 42.3478 1 45 1ZM49.8109 6.72L42.3709 14.1618L40.2727 11.3636C40.1281 11.1708 39.9127 11.0432 39.674 11.0091C39.4353 10.975 39.1929 11.0372 39 11.1818C38.8071 11.3265 38.6796 11.5418 38.6455 11.7805C38.6114 12.0192 38.6735 12.2617 38.8182 12.4545L41.5455 16.0909C41.6237 16.1952 41.7234 16.2814 41.8379 16.3437C41.9523 16.4061 42.0789 16.4431 42.2089 16.4522C42.3389 16.4613 42.4694 16.4424 42.5915 16.3967C42.7135 16.351 42.8243 16.2796 42.9164 16.1873L51.0982 8.00545C51.2638 7.834 51.3554 7.60436 51.3533 7.366C51.3513 7.12764 51.2557 6.89963 51.0871 6.73107C50.9186 6.56252 50.6905 6.46691 50.4522 6.46484C50.2138 6.46277 49.9824 6.5544 49.8109 6.72Z" fill="black"/>
</g>
<defs>
<clipPath id="clip0_25_17">
<rect width="55" height="40" fill="white"/>
</clipPath>
</defs>
</svg>
